<?xml version="1.0" encoding="UTF-8" standalone="no"?>
<svg
   width="35"
   height="34"
   viewBox="0 0 35 34"
   version="1.1"
   id="svg6"
   xmlns="http://www.w3.org/2000/svg"
   xmlns:svg="http://www.w3.org/2000/svg">
  <defs
     id="defs10" />
  <g
     fill="#ffffff"
     id="g4"
     transform="matrix(1.1345883,0,0,1.1345883,0.11707137,-2.4711328)">
    <path
       d="M 26.0015,6.9529 C 24.0021,6.03845 21.8787,5.37198 19.6623,5 c -0.279,0.48048 -0.589,1.13144 -0.806,1.64292 -2.3574,-0.34099 -4.6978,-0.34099 -7.0227,0 C 11.6166,6.13144 11.2911,5.48048 11.0276,5 8.79575,5.37198 6.67235,6.03845 4.6869,6.9529 0.672601,12.8736 -0.41235,18.6548 0.130124,24.3585 2.79599,26.2959 5.36889,27.4739 7.89682,28.2489 8.51679,27.4119 9.07477,26.5129 9.55525,25.5675 8.64079,25.2265 7.77283,24.808 6.93587,24.312 c 0.21699,-0.1549 0.43399,-0.3254 0.63548,-0.4959 5.05275,2.3094 10.52555,2.3094 15.51625,0 0.217,0.1705 0.4185,0.341 0.6355,0.4959 -0.837,0.496 -1.7049,0.9145 -2.6194,1.2555 0.4805,0.9454 1.0385,1.8444 1.6584,2.6814 2.5264,-0.775 5.1148,-1.953 7.7667,-3.8904 C 31.1952,17.7559 29.4733,12.0212 26.0015,6.9529 Z M 10.2527,20.8402 c -1.51894,0 -2.75888,-1.3794 -2.75888,-3.0688 0,-1.6894 1.20894,-3.0689 2.75888,-3.0689 1.5344,0 2.7898,1.3795 2.7588,3.0689 0,1.6894 -1.2244,3.0688 -2.7588,3.0688 z m 10.1846,0 c -1.519,0 -2.7605,-1.3794 -2.7605,-3.0688 0,-1.6894 1.2105,-3.0689 2.7605,-3.0689 1.5344,0 2.7898,1.3795 2.7588,3.0689 0,1.6894 -1.2089,3.0688 -2.7588,3.0688 z"
       id="path2" />
  </g>
</svg>
